<svg xmlns="http://www.w3.org/2000/svg" viewBox="0 0 32 32" width="32" height="32">
  <defs>
    <style>
      .icon-fill { fill: #ffffff; opacity: 0.9; }
      .icon-stroke { stroke: #ffffff; stroke-width: 1.5; fill: none; opacity: 0.9; }
    </style>
  </defs>
  
  <!-- Window frame -->
  <rect x="4" y="6" width="24" height="20" rx="2" class="icon-stroke"/>
  
  <!-- Window cross frame -->
  <line x1="16" y1="6" x2="16" y2="26" class="icon-stroke"/>
  <line x1="4" y1="16" x2="28" y2="16" class="icon-stroke"/>
  
  <!-- Window panes -->
  <rect x="6" y="8" width="8" height="6" class="icon-fill" opacity="0.2"/>
  <rect x="18" y="8" width="8" height="6" class="icon-fill" opacity="0.2"/>
  <rect x="6" y="18" width="8" height="6" class="icon-fill" opacity="0.2"/>
  <rect x="18" y="18" width="8" height="6" class="icon-fill" opacity="0.2"/>
  
  <!-- Window handle -->
  <circle cx="20" cy="14" r="1" class="icon-fill"/>
  <rect x="19" y="13" width="2" height="2" class="icon-stroke" stroke-width="1"/>
  
  <!-- Window sill -->
  <rect x="2" y="26" width="28" height="2" rx="1" class="icon-fill"/>
  
  <!-- Curtain indication -->
  <path d="M6 8 Q8 10 6 12" class="icon-stroke" stroke-width="1" opacity="0.5"/>
  <path d="M26 8 Q24 10 26 12" class="icon-stroke" stroke-width="1" opacity="0.5"/>
  
  <!-- Glass reflection -->
  <line x1="8" y1="10" x2="12" y2="10" class="icon-stroke" stroke-width="0.5" opacity="0.7"/>
  <line x1="20" y1="10" x2="24" y2="10" class="icon-stroke" stroke-width="0.5" opacity="0.7"/>
</svg>