<svg xmlns="http://www.w3.org/2000/svg" viewBox="0 0 32 32" width="32" height="32">
  <defs>
    <style>
      .icon-fill { fill: #ffffff; opacity: 0.9; }
      .icon-stroke { stroke: #ffffff; stroke-width: 1.5; fill: none; opacity: 0.9; }
    </style>
  </defs>
  
  <!-- Dryer body -->
  <rect x="4" y="6" width="24" height="22" rx="3" class="icon-stroke"/>
  
  <!-- Control panel -->
  <rect x="6" y="8" width="20" height="4" rx="1" class="icon-fill" opacity="0.3"/>
  
  <!-- Control knob -->
  <circle cx="9" cy="10" r="1.5" class="icon-stroke"/>
  <line x1="9" y1="8.5" x2="9" y2="10" class="icon-stroke" stroke-width="1"/>
  
  <!-- Display -->
  <rect x="15" y="9" width="8" height="2" rx="1" class="icon-stroke"/>
  
  <!-- Door -->
  <circle cx="16" cy="20" r="8" class="icon-stroke"/>
  <circle cx="16" cy="20" r="6" class="icon-stroke" opacity="0.5"/>
  
  <!-- Door handle -->
  <rect x="22" y="19" width="3" height="2" rx="1" class="icon-fill"/>
  
  <!-- Heat/air flow symbols inside -->
  <g opacity="0.7">
    <!-- Hot air waves -->
    <path d="M12 18 Q14 16 12 14" class="icon-stroke" stroke-width="1"/>
    <path d="M16 18 Q18 16 16 14" class="icon-stroke" stroke-width="1"/>
    <path d="M20 18 Q22 16 20 14" class="icon-stroke" stroke-width="1"/>
    
    <!-- Tumble motion arrows -->
    <path d="M14 22 Q16 24 18 22" class="icon-stroke" stroke-width="1" opacity="0.5"/>
    <circle cx="16" cy="20" r="1" class="icon-fill" opacity="0.5"/>
  </g>
  
  <!-- Temperature indicator -->
  <circle cx="12" cy="10" r="0.5" class="icon-fill" fill="#FF5722"/>
  
  <!-- Legs -->
  <line x1="8" y1="28" x2="8" y2="30" class="icon-stroke"/>
  <line x1="24" y1="28" x2="24" y2="30" class="icon-stroke"/>
</svg>