<svg xmlns="http://www.w3.org/2000/svg" viewBox="0 0 32 32" width="32" height="32">
  <defs>
    <style>
      .icon-fill { fill: #ffffff; opacity: 0.9; }
      .icon-stroke { stroke: #ffffff; stroke-width: 1.5; fill: none; opacity: 0.9; }
    </style>
  </defs>
  
  <!-- Washing machine body -->
  <rect x="4" y="6" width="24" height="22" rx="3" class="icon-stroke"/>
  
  <!-- Control panel -->
  <rect x="6" y="8" width="20" height="4" rx="1" class="icon-fill" opacity="0.3"/>
  
  <!-- Control buttons -->
  <circle cx="9" cy="10" r="1" class="icon-fill"/>
  <circle cx="12" cy="10" r="1" class="icon-fill"/>
  <circle cx="15" cy="10" r="1" class="icon-fill"/>
  
  <!-- Display -->
  <rect x="18" y="9" width="8" height="2" rx="1" class="icon-stroke"/>
  
  <!-- Door -->
  <circle cx="16" cy="20" r="8" class="icon-stroke"/>
  <circle cx="16" cy="20" r="6" class="icon-stroke" opacity="0.5"/>
  
  <!-- Door handle -->
  <rect x="22" y="19" width="3" height="2" rx="1" class="icon-fill"/>
  
  <!-- Water/wash symbol inside -->
  <path d="M16 16 Q18 18 16 20 Q14 18 16 16" class="icon-stroke" stroke-width="1" opacity="0.7"/>
  <path d="M13 18 Q15 20 13 22 Q11 20 13 18" class="icon-stroke" stroke-width="1" opacity="0.5"/>
  <path d="M19 18 Q21 20 19 22 Q17 20 19 18" class="icon-stroke" stroke-width="1" opacity="0.5"/>
  
  <!-- Legs -->
  <line x1="8" y1="28" x2="8" y2="30" class="icon-stroke"/>
  <line x1="24" y1="28" x2="24" y2="30" class="icon-stroke"/>
</svg>